<svg width="1152" height="592" viewBox="0 0 1152 592" fill="none" xmlns="http://www.w3.org/2000/svg">
<g clip-path="url(#clip0)">
<rect width="1152" height="592" fill="#00A8FF"/>
<g filter="url(#filter0_d)">
<rect x="649" y="470.027" width="689.549" height="535.579" rx="100" transform="rotate(-53.1839 649 470.027)" fill="white"/>
</g>
<g clip-path="url(#clip1)">
<path d="M744.12 499.937C760.175 499.937 773.191 486.929 773.191 470.883C773.191 454.837 760.175 441.829 744.12 441.829C728.064 441.829 715.049 454.837 715.049 470.883C715.049 486.929 728.064 499.937 744.12 499.937Z" fill="#F2F2F2"/>
<path d="M748.847 495.685C764.902 495.685 777.918 482.677 777.918 466.631C777.918 450.585 764.902 437.577 748.847 437.577C732.791 437.577 719.776 450.585 719.776 466.631C719.776 482.677 732.791 495.685 748.847 495.685Z" fill="#00A8FF"/>
<path d="M1131.95 434.483H772.259V435.464H1131.95V434.483Z" fill="#3F3D56"/>
<path d="M958.542 224.147H830.875V221.518H772.986V224.147H644.792C643.658 224.147 642.535 224.371 641.488 224.804C640.44 225.238 639.488 225.874 638.686 226.675C637.884 227.477 637.248 228.428 636.814 229.475C636.38 230.522 636.157 231.645 636.157 232.778V407.491C636.157 409.78 637.066 411.975 638.686 413.593C640.305 415.212 642.502 416.121 644.792 416.121H958.542C960.833 416.121 963.029 415.212 964.649 413.593C966.268 411.975 967.178 409.78 967.178 407.491V232.778C967.178 231.645 966.955 230.522 966.521 229.475C966.087 228.428 965.451 227.477 964.649 226.675C963.847 225.874 962.895 225.238 961.847 224.804C960.799 224.371 959.676 224.147 958.542 224.147V224.147Z" fill="#3F3D56"/>
<path d="M955.6 239.4H647.734V412.966H955.6V239.4Z" fill="#00A8FF"/>
<path d="M801.404 234.666C803.148 234.666 804.562 233.254 804.562 231.511C804.562 229.768 803.148 228.355 801.404 228.355C799.66 228.355 798.247 229.768 798.247 231.511C798.247 233.254 799.66 234.666 801.404 234.666Z" fill="#00A8FF"/>
<path opacity="0.1" d="M867.556 412.966H647.735V239.4L867.556 412.966Z" fill="black"/>
<path d="M695.906 399.978C712.25 399.978 725.499 386.736 725.499 370.402C725.499 354.068 712.25 340.826 695.906 340.826C679.562 340.826 666.313 354.068 666.313 370.402C666.313 386.736 679.562 399.978 695.906 399.978Z" fill="#F2F2F2"/>
<path d="M901.996 333.005H873.238V339.011H901.996V333.005Z" fill="#3F3D56"/>
<path d="M936.763 286.247H838.471V288.821H936.763V286.247Z" fill="#3F3D56"/>
<path d="M936.763 294.398H838.471V296.972H936.763V294.398Z" fill="#3F3D56"/>
<path d="M936.763 302.548H838.471V305.122H936.763V302.548Z" fill="#3F3D56"/>
<path d="M936.763 310.699H838.471V313.273H936.763V310.699Z" fill="#3F3D56"/>
<path d="M936.763 318.849H838.471V321.423H936.763V318.849Z" fill="#3F3D56"/>
<path d="M936.763 242.921H924.745V254.933H936.763V242.921Z" fill="#F2F2F2"/>
<path d="M942.343 260.509H927.749V245.924H942.343V260.509ZM928.384 259.875H941.708V246.558H928.384V259.875Z" fill="#3F3D56"/>
<path d="M975.822 409.81H945.777V407.646C945.777 407.59 945.766 407.534 945.744 407.482C945.722 407.43 945.691 407.383 945.651 407.343C945.611 407.303 945.564 407.272 945.512 407.25C945.46 407.228 945.404 407.217 945.347 407.217H935.046C934.99 407.217 934.934 407.228 934.882 407.25C934.83 407.272 934.782 407.303 934.743 407.343C934.703 407.383 934.671 407.43 934.65 407.482C934.628 407.534 934.617 407.59 934.617 407.646V409.81H928.178V407.646C928.178 407.59 928.167 407.534 928.146 407.482C928.124 407.43 928.093 407.383 928.053 407.343C928.013 407.303 927.966 407.272 927.914 407.25C927.861 407.228 927.806 407.217 927.749 407.217H917.448C917.391 407.217 917.336 407.228 917.284 407.25C917.232 407.272 917.184 407.303 917.144 407.343C917.104 407.383 917.073 407.43 917.051 407.482C917.03 407.534 917.019 407.59 917.019 407.646V409.81H910.58V407.646C910.58 407.59 910.569 407.534 910.548 407.482C910.526 407.43 910.494 407.383 910.455 407.343C910.415 407.303 910.367 407.272 910.315 407.25C910.263 407.228 910.207 407.217 910.151 407.217H899.85C899.793 407.217 899.738 407.228 899.685 407.25C899.633 407.272 899.586 407.303 899.546 407.343C899.506 407.383 899.475 407.43 899.453 407.482C899.432 407.534 899.42 407.59 899.42 407.646V409.81H892.982V407.646C892.982 407.59 892.971 407.534 892.949 407.482C892.928 407.43 892.896 407.383 892.856 407.343C892.816 407.303 892.769 407.272 892.717 407.25C892.665 407.228 892.609 407.217 892.553 407.217H882.251C882.195 407.217 882.139 407.228 882.087 407.25C882.035 407.272 881.988 407.303 881.948 407.343C881.908 407.383 881.876 407.43 881.855 407.482C881.833 407.534 881.822 407.59 881.822 407.646V409.81H875.384V407.646C875.384 407.59 875.373 407.534 875.351 407.482C875.33 407.43 875.298 407.383 875.258 407.343C875.218 407.303 875.171 407.272 875.119 407.25C875.067 407.228 875.011 407.217 874.955 407.217H864.653C864.597 407.217 864.541 407.228 864.489 407.25C864.437 407.272 864.39 407.303 864.35 407.343C864.31 407.383 864.278 407.43 864.257 407.482C864.235 407.534 864.224 407.59 864.224 407.646V409.81H857.786V407.646C857.786 407.59 857.775 407.534 857.753 407.482C857.731 407.43 857.7 407.383 857.66 407.343C857.62 407.303 857.573 407.272 857.521 407.25C857.469 407.228 857.413 407.217 857.356 407.217H847.055C846.999 407.217 846.943 407.228 846.891 407.25C846.839 407.272 846.791 407.303 846.752 407.343C846.712 407.383 846.68 407.43 846.659 407.482C846.637 407.534 846.626 407.59 846.626 407.646V409.81H840.187V407.646C840.187 407.59 840.176 407.534 840.155 407.482C840.133 407.43 840.102 407.383 840.062 407.343C840.022 407.303 839.975 407.272 839.923 407.25C839.87 407.228 839.815 407.217 839.758 407.217H759.064C759.008 407.217 758.952 407.228 758.9 407.25C758.848 407.272 758.8 407.303 758.761 407.343C758.721 407.383 758.689 407.43 758.668 407.482C758.646 407.534 758.635 407.59 758.635 407.646V409.81H752.197V407.646C752.197 407.59 752.185 407.534 752.164 407.482C752.142 407.43 752.111 407.383 752.071 407.343C752.031 407.303 751.984 407.272 751.932 407.25C751.879 407.228 751.824 407.217 751.767 407.217H741.466C741.41 407.217 741.354 407.228 741.302 407.25C741.25 407.272 741.202 407.303 741.162 407.343C741.123 407.383 741.091 407.43 741.069 407.482C741.048 407.534 741.037 407.59 741.037 407.646V409.81H734.598V407.646C734.598 407.59 734.587 407.534 734.566 407.482C734.544 407.43 734.512 407.383 734.473 407.343C734.433 407.303 734.385 407.272 734.333 407.25C734.281 407.228 734.225 407.217 734.169 407.217H723.868C723.811 407.217 723.756 407.228 723.703 407.25C723.651 407.272 723.604 407.303 723.564 407.343C723.524 407.383 723.493 407.43 723.471 407.482C723.45 407.534 723.438 407.59 723.438 407.646V409.81H717V407.646C717 407.59 716.989 407.534 716.967 407.482C716.946 407.43 716.914 407.383 716.874 407.343C716.835 407.303 716.787 407.272 716.735 407.25C716.683 407.228 716.627 407.217 716.571 407.217H706.27C706.213 407.217 706.157 407.228 706.105 407.25C706.053 407.272 706.006 407.303 705.966 407.343C705.926 407.383 705.895 407.43 705.873 407.482C705.851 407.534 705.84 407.59 705.84 407.646V409.81H699.402V407.646C699.402 407.59 699.391 407.534 699.369 407.482C699.348 407.43 699.316 407.383 699.276 407.343C699.236 407.303 699.189 407.272 699.137 407.25C699.085 407.228 699.029 407.217 698.973 407.217H688.671C688.615 407.217 688.559 407.228 688.507 407.25C688.455 407.272 688.408 407.303 688.368 407.343C688.328 407.383 688.296 407.43 688.275 407.482C688.253 407.534 688.242 407.59 688.242 407.646V409.81H681.804V407.646C681.804 407.59 681.793 407.534 681.771 407.482C681.749 407.43 681.718 407.383 681.678 407.343C681.638 407.303 681.591 407.272 681.539 407.25C681.487 407.228 681.431 407.217 681.375 407.217H671.073C671.017 407.217 670.961 407.228 670.909 407.25C670.857 407.272 670.809 407.303 670.77 407.343C670.73 407.383 670.698 407.43 670.677 407.482C670.655 407.534 670.644 407.59 670.644 407.646V409.81H664.206V407.646C664.206 407.59 664.194 407.534 664.173 407.482C664.151 407.43 664.12 407.383 664.08 407.343C664.04 407.303 663.993 407.272 663.941 407.25C663.888 407.228 663.833 407.217 663.776 407.217H653.475C653.419 407.217 653.363 407.228 653.311 407.25C653.259 407.272 653.211 407.303 653.171 407.343C653.132 407.383 653.1 407.43 653.078 407.482C653.057 407.534 653.046 407.59 653.046 407.646V409.81H633.301C630.569 409.81 627.949 410.894 626.017 412.825C624.085 414.756 623 417.375 623 420.105V424.76C623 427.491 624.085 430.11 626.017 432.04C627.949 433.971 630.569 435.056 633.301 435.056H975.822C978.554 435.056 981.175 433.971 983.107 432.04C985.038 430.11 986.124 427.491 986.124 424.76V420.105C986.124 417.375 985.038 414.756 983.107 412.825C981.175 410.894 978.554 409.81 975.822 409.81Z" fill="#3F3D56"/>
<path d="M703.069 388.874C695.693 388.874 688.483 386.689 682.35 382.593C676.217 378.498 671.437 372.677 668.614 365.866C665.792 359.055 665.053 351.561 666.492 344.331C667.931 337.101 671.483 330.46 676.699 325.248C681.914 320.035 688.559 316.485 695.794 315.047C703.028 313.609 710.527 314.347 717.341 317.168C724.156 319.989 729.98 324.766 734.078 330.896C738.176 337.025 740.363 344.231 740.363 351.603C740.352 361.484 736.419 370.958 729.428 377.945C722.436 384.933 712.957 388.863 703.069 388.874ZM703.069 315.312C695.888 315.312 688.867 317.44 682.895 321.428C676.924 325.416 672.27 331.083 669.521 337.715C666.773 344.346 666.054 351.643 667.455 358.683C668.856 365.722 672.314 372.189 677.393 377.264C682.471 382.34 688.941 385.796 695.985 387.196C703.029 388.597 710.33 387.878 716.966 385.131C723.601 382.384 729.272 377.733 733.262 371.765C737.252 365.797 739.382 358.78 739.382 351.603C739.371 341.981 735.542 332.757 728.734 325.953C721.927 319.15 712.697 315.323 703.069 315.312V315.312Z" fill="#3F3D56"/>
<path d="M1035.77 230.96H910.639V231.941H1035.77V230.96Z" fill="#3F3D56"/>
<path d="M1182 489.901H822.311V490.882H1182V489.901Z" fill="#3F3D56"/>
<path d="M867.863 484.73H854.123V498.462H867.863V484.73Z" fill="#00A8FF"/>
<path d="M876.205 490.615H859.521V473.941H876.205V490.615ZM860.247 489.89H875.48V474.666H860.247V489.89Z" fill="#3F3D56"/>
<path d="M1027.34 225.789H1013.6V239.521H1027.34V225.789Z" fill="#00A8FF"/>
<path d="M1035.69 231.674H1019V215H1035.69V231.674ZM1019.73 230.949H1034.96V215.725H1019.73V230.949Z" fill="#3F3D56"/>
<path d="M1165.72 484.73H1151.98V498.462H1165.72V484.73Z" fill="#00A8FF"/>
<path d="M1141.76 328.757H1140.59V296.8C1140.59 294.371 1140.12 291.966 1139.19 289.722C1138.26 287.478 1136.89 285.439 1135.17 283.722C1133.46 282.004 1131.42 280.642 1129.17 279.712C1126.93 278.783 1124.52 278.305 1122.09 278.305H1054.34C1051.91 278.305 1049.51 278.783 1047.26 279.712C1045.02 280.642 1042.98 282.004 1041.26 283.722C1039.54 285.439 1038.18 287.478 1037.25 289.722C1036.32 291.966 1035.84 294.371 1035.84 296.8V472.116C1035.84 474.544 1036.32 476.949 1037.25 479.193C1038.18 481.437 1039.54 483.476 1041.26 485.194C1042.98 486.911 1045.02 488.274 1047.26 489.203C1049.51 490.133 1051.91 490.611 1054.34 490.611H1122.09C1124.52 490.611 1126.93 490.133 1129.17 489.203C1131.42 488.274 1133.46 486.911 1135.17 485.194C1136.89 483.476 1138.26 481.437 1139.19 479.193C1140.12 476.949 1140.59 474.544 1140.59 472.116V351.504H1141.76V328.757Z" fill="#3F3D56"/>
<path d="M1136.65 297.887V472.947C1136.65 476.61 1135.2 480.124 1132.61 482.715C1130.02 485.305 1126.5 486.761 1122.84 486.762H1054.76C1051.1 486.761 1047.58 485.305 1044.99 482.715C1042.4 480.124 1040.95 476.61 1040.95 472.947V297.887C1040.95 294.225 1042.4 290.712 1044.99 288.122C1047.59 285.533 1051.1 284.077 1054.76 284.077H1063.02C1062.62 285.073 1062.46 286.154 1062.57 287.225C1062.68 288.295 1063.05 289.322 1063.65 290.215C1064.25 291.108 1065.07 291.839 1066.02 292.345C1066.97 292.851 1068.03 293.115 1069.1 293.115H1107.91C1108.99 293.115 1110.05 292.851 1111 292.345C1111.95 291.839 1112.76 291.108 1113.36 290.215C1113.96 289.322 1114.33 288.295 1114.44 287.225C1114.55 286.154 1114.4 285.073 1113.99 284.077H1122.84C1126.5 284.077 1130.01 285.533 1132.61 288.122C1135.2 290.712 1136.65 294.225 1136.65 297.887V297.887Z" fill="#00A8FF"/>
<path d="M1098.94 399.504H1078.66V405.51H1098.94V399.504Z" fill="#3F3D56"/>
<path d="M1123.45 352.746H1054.15V355.32H1123.45V352.746Z" fill="#3F3D56"/>
<path d="M1123.45 360.897H1054.15V363.47H1123.45V360.897Z" fill="#3F3D56"/>
<path d="M1123.45 369.047H1054.15V371.621H1123.45V369.047Z" fill="#3F3D56"/>
<path d="M1123.45 377.198H1054.15V379.771H1123.45V377.198Z" fill="#3F3D56"/>
<path d="M1123.45 385.348H1054.15V387.922H1123.45V385.348Z" fill="#3F3D56"/>
<path d="M1091.22 318.566H1079.2V330.577H1091.22V318.566Z" fill="#F2F2F2"/>
<path d="M1083.8 321.569V336.155H1098.4V321.569H1083.8ZM1097.76 335.522H1084.44V322.202H1097.76V335.522Z" fill="#3F3D56"/>
<path opacity="0.1" d="M1136.65 454.252V472.947C1136.65 476.61 1135.2 480.124 1132.61 482.715C1130.02 485.305 1126.5 486.761 1122.84 486.762H1054.76C1051.1 486.761 1047.58 485.305 1044.99 482.715C1042.4 480.124 1040.95 476.61 1040.95 472.947V378.684L1098.3 423.964L1099.28 424.739L1109.94 433.159L1110.94 433.949L1136.65 454.252Z" fill="black"/>
<path d="M1082.91 481.089C1094.8 481.089 1104.44 471.457 1104.44 459.575C1104.44 447.693 1094.8 438.061 1082.91 438.061C1071.02 438.061 1061.39 447.693 1061.39 459.575C1061.39 471.457 1071.02 481.089 1082.91 481.089Z" fill="#F2F2F2"/>
<path d="M1089.26 476.169C1083.92 476.169 1078.7 474.587 1074.26 471.623C1069.82 468.659 1066.36 464.447 1064.32 459.518C1062.28 454.589 1061.74 449.166 1062.79 443.934C1063.83 438.702 1066.4 433.895 1070.17 430.123C1073.95 426.351 1078.76 423.782 1083.99 422.741C1089.23 421.7 1094.65 422.235 1099.58 424.276C1104.52 426.318 1108.73 429.775 1111.7 434.211C1114.66 438.646 1116.25 443.861 1116.25 449.196C1116.24 456.347 1113.39 463.203 1108.33 468.26C1103.27 473.317 1096.41 476.161 1089.26 476.169V476.169ZM1089.26 423.204C1084.11 423.204 1079.08 424.728 1074.81 427.584C1070.53 430.44 1067.2 434.5 1065.23 439.249C1063.26 443.999 1062.75 449.225 1063.75 454.267C1064.75 459.309 1067.23 463.94 1070.87 467.575C1074.5 471.21 1079.14 473.686 1084.18 474.689C1089.23 475.692 1094.46 475.177 1099.21 473.21C1103.96 471.242 1108.02 467.911 1110.88 463.636C1113.74 459.362 1115.26 454.337 1115.26 449.196C1115.26 442.305 1112.51 435.698 1107.64 430.825C1102.76 425.952 1096.15 423.212 1089.26 423.204Z" fill="#3F3D56"/>
</g>
</g>
<defs>
<filter id="filter0_d" x="549" y="-182" width="1041.98" height="1072.97" filterUnits="userSpaceOnUse" color-interpolation-filters="sRGB">
<feFlood flood-opacity="0" result="BackgroundImageFix"/>
<feColorMatrix in="SourceAlpha" type="matrix" values="0 0 0 0 0 0 0 0 0 0 0 0 0 0 0 0 0 0 127 0"/>
<feOffset/>
<feGaussianBlur stdDeviation="50"/>
<feColorMatrix type="matrix" values="0 0 0 0 0 0 0 0 0 0 0 0 0 0 0 0 0 0 0.1 0"/>
<feBlend mode="normal" in2="BackgroundImageFix" result="effect1_dropShadow"/>
<feBlend mode="normal" in="SourceGraphic" in2="effect1_dropShadow" result="shape"/>
</filter>
<clipPath id="clip0">
<rect width="1152" height="592" fill="white"/>
</clipPath>
<clipPath id="clip1">
<rect width="559" height="321" fill="white" transform="translate(623 215)"/>
</clipPath>
</defs>
</svg>
